PathFileType	4	(X/Y/Z)	/Users/visionmauri/4_3_2_f_1_Sports2D/4_3_2_f_1_Sports2D_m_person00.trc
DataRate	CameraRate	NumFrames	NumMarkers	Units	OrigDataRate	OrigDataStartFrame	OrigNumFrames
30.0	30.0	8	22	m	30.0	225	360
Frame#	Time	Hip			RHip			RKnee			RAnkle			RBigToe			RSmallToe			RHeel			LHip			LKnee			LAnkle			LBigToe			LSmallToe			LHeel			Neck			Head			Nose			RShoulder			RElbow			RWrist			LShoulder			LElbow			LWrist			
		X1	Y1	Z1	X2	Y2	Z2	X3	Y3	Z3	X4	Y4	Z4	X5	Y5	Z5	X6	Y6	Z6	X7	Y7	Z7	X8	Y8	Z8	X9	Y9	Z9	X10	Y10	Z10	X11	Y11	Z11	X12	Y12	Z12	X13	Y13	Z13	X14	Y14	Z14	X15	Y15	Z15	X16	Y16	Z16	X17	Y17	Z17	X18	Y18	Z18	X19	Y19	Z19	X20	Y20	Z20	X21	Y21	Z21	X22	Y22	Z22
225	7.520891364902507	1.136020218798987	0.9313093565290361	0.0301	1.0289657589885746	0.9416468890493617	0.0301	0.9281664842286866	0.629592192970227	0.129	0.837523891886698	0.25038404790646035	0.023	0.8036484334972097	0.09959086702153107	0.2179	0.7537213116511847	0.1271996678810047	0.1804	0.8688913579115956	0.18565489256540657	-0.0119	1.2427641428813894	0.9066119696821487	0.0301	1.188375078810613	0.5039556970388022	0.129	1.1290715347250604	0.08623253666004155	0.023	1.1881012698333238	-0.046590023323475754	0.2179	1.227087027529983	-0.038203544040598766	0.1804	1.0840467001511684	0.02970168136250968	-0.0119	1.2122840444577325	1.4817556699184853	0.0008	1.2159346978092462	1.7181219124294655	0.0655	1.182173142604519	1.5166296179634808	0.1076	1.028116600194913	1.4525762606572568	-0.01275	0.8688908171223423	1.2125435019017483	0.0702	0.7337055253243688	1.012722728737834	0.1076	1.396157877982051	1.4237517875821488	-0.01275	1.4832054308008735	1.157026042808942	0.0702	1.4734396543233699	0.9318300479644471	0.1076
226	7.554317548746519	1.1393140315961574	0.9300926927230104	0.0301	1.031810426608868	0.9377642573155378	0.0301	0.9292651748358943	0.6273378164410881	0.129	0.8377757899321977	0.2464269257326789	0.023	0.8029720708812531	0.09175878454502642	0.2179	0.7514942982285923	0.11985981724700835	0.1804	0.8693560101004617	0.18239002408542884	-0.0119	1.2453192291336377	0.9028145522075537	0.0301	1.1909847381050565	0.5045178460961457	0.129	1.1294520089858004	0.08696299371072501	0.023	1.1878660478295027	-0.047026282596461313	0.2179	1.2272960848282328	-0.038126402023625126	0.1804	1.0843488787299662	0.028439414100297	-0.0119	1.222384613605109	1.4857346525490298	0.0008	1.2283724258713031	1.7167100619842581	0.0655	1.1882927690112637	1.5163398464043374	0.1076	1.0391743222003318	1.4568211447321437	-0.01275	0.874378495793234	1.2140947033267113	0.0702	0.7348118153816358	1.0142545169114632	0.1076	1.4060967994668652	1.4201622009489157	-0.01275	1.4928984732886084	1.149469797367992	0.0702	1.4808679755433594	0.930030645050581	0.1076
227	7.587743732590529	1.14348265357791	0.9330675381673836	0.0301	1.036163732185233	0.9427320196121771	0.0301	0.9318278561042734	0.6295875223465985	0.129	0.8397278640555426	0.24374599139919095	0.023	0.802237447208329	0.0802327194298725	0.2179	0.7488001725837083	0.10723658364193514	0.1804	0.8691782714962353	0.17832814197925612	-0.0119	1.2490127790735626	0.9024143683339451	0.0301	1.1940365519872018	0.5059731768778074	0.129	1.129952506580183	0.08723976265887791	0.023	1.1868415775080943	-0.04710793061763132	0.2179	1.2275373617561272	-0.03846516631825739	0.1804	1.0836772653512994	0.027218987767160058	-0.0119	1.2293727493296571	1.4864490671168182	0.0008	1.2409127956991752	1.7159022323519135	0.0655	1.1951990256305738	1.515228965452571	0.1076	1.0483413767462164	1.461232662128382	-0.01275	0.8810896013665055	1.2173203013577663	0.0702	0.7372360571775036	1.0152899494440826	0.1076	1.4123909057072048	1.4179674974385859	-0.01275	1.501831918440231	1.1444862427553626	0.0702	1.487335368028976	0.9298897917506347	0.1076
228	7.621169916434541	1.1473510408762988	0.938585994884455	0.0301	1.0413810743169172	0.951815731946147	0.0301	0.935439562133266	0.6319836904267696	0.129	0.8430478988007682	0.23697583651177534	0.023	0.8007317009619009	0.06643497281207972	0.2179	0.7465327705196687	0.09201541857538466	0.1804	0.86974119249986	0.1654826253215295	-0.0119	1.2530138391785643	0.9057163730220498	0.0301	1.1967671035778402	0.5068223221060505	0.129	1.130541166371651	0.08771585520012175	0.023	1.184612445593619	-0.04658446852120799	0.2179	1.227733209447804	-0.03848309544549403	0.1804	1.0838791689818652	0.02604597542645231	-0.0119	1.2350019370872158	1.4856992609734347	0.0008	1.2513187476801602	1.7167134922644354	0.0655	1.2021410495753269	1.5149225028058937	0.1076	1.0563047665631988	1.4658351478070757	-0.01275	0.8874628180840477	1.221825500801068	0.0702	0.741319204471652	1.017098452885675	0.1076	1.417002693154063	1.4182627099950653	-0.01275	1.5101691476106398	1.139356900059028	0.0702	1.4921929365341948	0.9283463225415842	0.1076
229	7.654596100278552	1.1496355612740683	0.9424753512215072	0.0301	1.0453731396420756	0.9551386072967798	0.0301	0.9393286387584276	0.6296079944351645	0.129	0.8452431944300262	0.21719613599998297	0.023	0.7978824526737063	0.05191830901284736	0.2179	0.7447122077695855	0.0767078392963165	0.1804	0.8704724577252327	0.13950752682202433	-0.0119	1.2556901669772351	0.9075228241013776	0.0301	1.1980516997689759	0.5069482892454688	0.129	1.1309803045867302	0.08869447008593581	0.023	1.182293611333413	-0.04602281161707962	0.2179	1.2280128864717932	-0.03809482097863936	0.1804	1.0850556210249567	0.02458006629737568	-0.0119	1.242322226124823	1.4870312160368668	0.0008	1.2575720693298895	1.7168762197673548	0.0655	1.2060580323496408	1.5151540532425567	0.1076	1.0638243904241864	1.4695485967027455	-0.01275	0.8920050604523533	1.2236807929803986	0.0702	0.7447518974295744	1.0186851034955025	0.1076	1.4236968892962543	1.4194593150665589	-0.01275	1.5177357684974624	1.1323164530574825	0.0702	1.4968014061206898	0.9255810834562237	0.1076
230	7.688022284122563	1.1516198834298224	0.9428086265207808	0.0301	1.0479394828225894	0.9520961827530553	0.0301	0.9428111427802164	0.6256968252589441	0.129	0.8431912245103454	0.18194440015109895	0.023	0.7941041230014004	0.03616842173878529	0.2179	0.7421137422974342	0.05763642607268702	0.1804	0.8697306729132714	0.10950834401662184	-0.0119	1.2577254431341032	0.9054608788423953	0.0301	1.1976578344692437	0.5068850192667087	0.129	1.131401596004351	0.08870842036793229	0.023	1.180764130628062	-0.04592310901764055	0.2179	1.2284489819716238	-0.037686718682180674	0.1804	1.0859896967167102	0.023260939830336634	-0.0119	1.2512714325668148	1.4892059735948366	0.0008	1.2615537660847658	1.716007166817817	0.0655	1.2064151969943244	1.5152019497579767	0.1076	1.0703349034963827	1.4721361373324255	-0.01275	0.8962467621828851	1.2230891327326037	0.0702	0.7459599802357301	1.019116185194642	0.1076	1.4329129060242642	1.4191041221830814	-0.01275	1.5233265253695423	1.1262458135353586	0.0702	1.5016145724323053	0.9241470404353442	0.1076
231	7.7214484679665745	1.1547095733863253	0.9419681386300205	0.0301	1.050099463718362	0.9493731007089988	0.0301	0.9461211360284609	0.6243350379059774	0.129	0.8394502965316962	0.14715258604840212	0.023	0.7941875118127723	0.01761604965979594	0.2179	0.740762406107373	0.031047295178844546	0.1804	0.8688652459490911	0.08348364026126504	-0.0119	1.2602289817405574	0.9024974152150768	0.0301	1.197341894479	0.5067916315111127	0.129	1.1317959335295602	0.08675244681722392	0.023	1.1794286642769274	-0.04596567611462615	0.2179	1.2283287165180636	-0.036796390453967355	0.1804	1.086381759715901	0.02256369609379311	-0.0119	1.2588731443001866	1.4891726935358987	0.0008	1.2663078625949733	1.7151081166357158	0.0655	1.2074348499447523	1.5145076368354695	0.1076	1.0752765437857201	1.4737416558057488	-0.01275	0.9015884814943754	1.2233481871446337	0.0702	0.7469785812278573	1.0193275948012483	0.1076	1.4412594275136363	1.4169724137247224	-0.01275	1.5257046809591002	1.1241210236676349	0.0702	1.5051685886231914	0.9246210848832065	0.1076
232	7.754874651810585	1.1584163786823134	0.9427283487849679	0.0301	1.0529008175146197	0.9497115092350084	0.0301	0.9516462896666228	0.6248080560125227	0.129	0.8458907165866955	0.16356208690174948	0.023	0.8064959986139594	-0.0022251404087027327	0.2179	0.7491136345842416	0.011189932081406213	0.1804	0.8730064934608699	0.05609728369675389	-0.0119	1.2622512670381638	0.9008696777364453	0.0301	1.1988023752062493	0.5064021803395389	0.129	1.131608455998536	0.08426811753962314	0.023	1.177702114220981	-0.04586060613208408	0.2179	1.2264543576101767	-0.0353066062288505	0.1804	1.0872920177168723	0.022255550625202746	-0.0119	1.2635050383579691	1.4889232455710781	0.0008	1.2710984780822046	1.7137006140179918	0.0655	1.213037210273846	1.5111846415467873	0.1076	1.0796081372138573	1.4743928483592186	-0.01275	0.9066706090902671	1.2245378567525045	0.0702	0.7506186699073201	1.0199467659081676	0.1076	1.4461961380669257	1.415588003162782	-0.01275	1.5245282430486282	1.125395320229348	0.0702	1.5069395188333812	0.9257145340314897	0.1076
